<svg width="318" height="175" viewBox="0 0 318 175" fill="none" xmlns="http://www.w3.org/2000/svg">
<path d="M113.761 0C116.768 0.866547 119.569 1.56147 122.218 2.6301C132.328 6.70895 139.301 13.9921 142.641 24.2257C147.435 38.9149 144.218 52.0908 133.174 62.9352C129.215 66.8229 124.25 69.708 119.7 72.9897C113.003 77.8198 106.265 82.5952 99.568 87.3775C110.455 95.1758 121.639 102.694 132.235 110.955C138.936 116.179 142.565 123.665 144.063 132.117C145.603 140.808 144.242 148.969 139.9 156.594C134.436 166.192 126.179 172.092 115.277 174.209C103.005 176.592 92.4612 172.946 82.6076 165.606C67.2233 154.145 51.5085 143.122 35.9138 131.94C28.8919 126.906 21.7314 122.058 14.7978 116.907C6.97046 111.092 1.74325 103.554 0.168614 93.6213C-0.0562048 89.6299 -0.0562048 85.7202 0.168614 81.4548C1.7026 71.5815 6.50548 63.9557 14.046 58.2995C25.2051 49.929 36.7194 42.0268 48.0741 33.9136C56.2616 28.0635 64.394 22.1363 72.6289 16.3532C78.7519 12.0532 84.847 7.67694 91.2579 3.83477C94.3759 1.9661 98.1881 1.24215 101.686 0C105.619 0 109.552 0 113.761 0ZM34.8222 123.474C53.183 136.592 71.5363 149.72 89.9084 162.822C96.9005 167.808 104.533 170.092 113.195 168.36C126.455 165.707 136.592 156.001 138.048 141.877C139.26 130.124 134.931 120.468 125.072 113.444C101.682 96.7791 78.3213 80.0737 54.9811 63.3397C47.2703 57.8113 38.7778 56.1676 29.5437 57.9239C17.6221 60.1913 6.50671 72.5769 5.85396 84.5108C5.23797 95.7728 9.46752 104.96 18.524 111.793C23.7465 115.733 29.143 119.445 34.8222 123.474ZM42.6637 45.6754C40.3653 47.353 38.067 49.0307 35.1782 51.1393C36.3762 51.3279 36.7304 51.4438 37.0794 51.4298C45.4822 51.0936 52.6679 54.1729 59.3299 58.9944C70.7271 67.243 82.2141 75.3691 93.6454 83.5337C93.9958 83.3659 94.2806 83.2768 94.5111 83.1124C105.252 75.4514 116.139 67.9831 126.684 60.0645C138.662 51.0696 141.066 35.6972 135.358 23.2276C127.34 5.71294 104.725 1.35271 90.24 11.691C74.4903 22.9316 58.7573 34.1953 42.6637 45.6754Z" fill="#101011"/>
<path d="M215.718 0C219.144 1.08461 222.594 1.67559 225.385 3.35432C231.62 7.10537 237.622 11.2661 243.548 15.4969C259.227 26.6902 274.843 37.9716 290.425 49.2982C296.273 53.5492 302.202 57.7441 307.651 62.4714C313.133 67.228 315.737 73.8282 316.954 80.8449C319.327 94.5259 315.08 106.146 304.739 115.227C299.342 119.966 293.144 123.805 287.281 128.011C275.568 136.414 263.846 144.805 252.108 153.174C244.002 158.953 236.014 164.917 227.679 170.35C223.24 173.243 217.983 174.502 212.595 174.833C205.691 175.258 198.995 174.4 192.817 171.2C181.873 165.531 174.981 156.456 173.276 144.431C171.04 128.665 177.032 116.113 190.369 107.013C199.613 100.706 208.606 94.0337 217.838 87.4339C209.057 81.0862 200.543 74.5778 191.659 68.6149C183.889 63.3998 177.614 57.1342 174.795 48.1083C171.102 36.2794 172.403 25.0032 179.758 14.785C184.759 7.83847 191.419 3.12594 199.85 1.08164C200.863 0.83585 201.893 0.655072 202.995 0.222082C207.198 5.92457e-07 211.32 5.84693e-07 215.718 0ZM311.18 87.4103C311.172 77.6205 307.469 69.3959 299.571 63.6582C275.247 45.9858 250.723 28.5869 226.271 11.0877C219.282 6.0857 211.213 5.21298 203.265 6.80209C190.723 9.31005 182.591 17.4145 179.868 29.8181C177.179 42.0666 181.129 52.5197 191.158 60.3341C195.928 64.0508 200.965 67.4286 205.886 70.9524C225.094 84.7064 244.206 98.5973 263.556 112.151C273.42 119.06 284.21 119.671 294.914 114.142C305.413 108.718 310.768 99.7808 311.18 87.4103ZM200.245 167.606C202.892 168.062 205.529 168.835 208.188 168.915C215.512 169.136 222.08 166.797 228.016 162.529C242.235 152.304 256.49 142.129 270.731 131.934C274.186 129.46 277.64 126.986 281.701 124.078C273.908 123.548 267.16 121.975 261.291 117.973C254.54 113.37 247.952 108.531 241.299 103.787C235.378 99.5649 229.465 95.3319 223.592 91.1352C221.366 92.7279 219.391 94.1346 217.423 95.5497C208.411 102.029 199.272 108.341 190.426 115.037C180.766 122.35 176.486 136.146 180.192 147.062C183.527 156.883 189.971 163.789 200.245 167.606Z" fill="#10110F"/>
<path d="M311.368 87.6694C310.954 99.7352 305.57 108.654 295.014 114.065C284.252 119.583 273.403 118.974 263.486 112.079C244.031 98.5542 224.816 84.6929 205.503 70.9682C200.555 67.4519 195.491 64.0813 190.696 60.3726C180.612 52.5748 176.64 42.144 179.344 29.9216C182.082 17.5444 190.258 9.45727 202.868 6.95467C210.859 5.36894 218.972 6.2398 225.999 11.2311C250.583 28.693 275.241 46.0549 299.697 63.6896C307.637 69.415 311.36 77.622 311.368 87.6694Z" fill="#34A853"/>
<path d="M43.8573 45.746C59.5021 34.3454 74.9661 23.0484 90.4464 11.7744C104.684 1.40551 126.912 5.77867 134.793 23.3453C140.403 35.8518 138.04 51.2698 126.267 60.2913C115.902 68.2335 105.201 75.7239 94.6444 83.4076C94.4179 83.5724 94.138 83.6618 93.7936 83.8301C82.5578 75.6413 71.2672 67.4912 60.0649 59.2181C53.5168 54.3823 46.4539 51.2938 38.1948 51.631C37.8519 51.645 37.5037 51.5288 36.3262 51.3397C39.1656 49.2248 41.4246 47.5422 43.8573 45.746Z" fill="#E94335"/>
<path d="M34.8591 123.267C29.4013 119.386 24.045 115.713 18.8614 111.815C9.87227 105.054 5.67418 95.9641 6.28559 84.821C6.93349 73.0131 17.9661 60.7583 29.7991 58.5148C38.9645 56.777 47.3937 58.4034 55.0472 63.8734C78.2138 80.4307 101.401 96.9597 124.617 113.449C134.402 120.399 138.699 129.953 137.497 141.581C136.051 155.557 125.989 165.16 112.828 167.784C104.23 169.499 96.6547 167.239 89.7146 162.305C71.4792 149.341 53.2625 136.352 34.8591 123.267Z" fill="#4285F3"/>
<path d="M199.156 166.89C188.994 163.295 182.511 156.499 179.158 146.835C175.429 136.092 179.734 122.516 189.452 115.32C198.35 108.729 207.544 102.518 216.609 96.1421C218.589 94.7495 220.575 93.3652 222.814 91.7979C228.722 95.9278 234.671 100.093 240.627 104.249C247.319 108.917 253.946 113.679 260.737 118.209C266.641 122.147 273.429 123.695 281.269 124.216C277.183 127.078 273.708 129.512 270.233 131.947C255.908 141.98 241.568 151.993 227.264 162.055C221.294 166.255 214.686 168.556 207.319 168.339C204.645 168.26 201.992 167.5 199.156 166.89Z" fill="#F8AA00"/>
</svg>
