<svg width="800" height="800" viewBox="0 0 800 800" fill="none" xmlns="http://www.w3.org/2000/svg">
<path d="M411.446 346.7C411.446 358.1 405.646 366.5 396.246 370.2L409.146 391H387.946L376.646 372.3H347.646V391H329.646V321H384.646C400.546 321 411.446 331.1 411.446 346.7ZM347.646 336.1V357.2H379.646C385.046 357.2 393.446 357.2 393.446 346.7C393.446 336.1 385.046 336.1 379.646 336.1H347.646Z" fill="#111111"/>
<path d="M491.341 335.3H435.341V349.5H491.341V362.5H435.341V376.7H491.341V391H417.341V321H491.341V335.3Z" fill="#111111"/>
<path d="M572.038 321H592.238L556.238 391H531.638L495.638 321H515.838L543.938 377.7L572.038 321Z" fill="#111111"/>
<path d="M643.431 391L635.931 376.1L629.231 362.7L616 376.1H594.031L586.531 391H566.731L602.831 321H627.131L663.331 391H643.431ZM600.731 362.7H629.231L615.031 334.3L600.731 362.7Z" fill="#111111"/>
<path d="M411.485 434.7C411.485 446.1 405.685 454.5 396.285 458.2L409.185 479H387.985L376.685 460.3H347.685V479H329.685V409H384.685C400.585 409 411.485 419.1 411.485 434.7ZM347.685 424.1V445.2H379.685C385.085 445.2 393.485 445.2 393.485 434.7C393.485 424.1 385.085 424.1 379.685 424.1H347.685Z" fill="#111111"/>
<path d="M435.38 409V420V437V479H417.38V437H435.38V420L417.38 427.5V409H435.38Z" fill="#111111"/>
<path d="M517.356 424.1H461.356V441.9H511.356V457.1H461.356V479H443.356V409H517.356V424.1Z" fill="#111111"/>
<path d="M608.337 409V424.1H574.337V479H556.337V424.1H536L530 417.5L522.337 409H608.337Z" fill="#111111"/>
<path d="M294 321C294.552 321 295 321.448 295 322V478C295 478.552 294.552 479 294 479H138C137.448 479 137 478.552 137 478V322C137 321.448 137.448 321 138 321H294ZM219.56 360.52L240.079 381.039V381.04H199.04V381.039L158 422.079V463.118L199.039 422.079L219.56 442.599L240.079 463.118H281.118L240.079 422.079H199.04V381.04L240.079 422.079L281.118 381.04L260.599 360.52L240.079 340H199.039L219.56 360.52ZM158 381.039L199.039 340H158V381.039Z" fill="#111111"/>
</svg>
